# Media Information
<pre>
General
Complete name                            : BIONICLE_3_ARNYAK_HALOJABAN.iso
Format                                   : ISO / DVD-Video
File size                                : 6.42 GiB
Duration                                 : 1 h 12 min
Overall bit rate mode                    : Variable
Overall bit rate                         : 12.7 Mb/s

Video
ID                                       : 224 (0xE0)
Format                                   : MPEG Video
Format version                           : Version 2
Format profile                           : Main@Main
Format settings                          : BVOP
Format settings, BVOP                    : Yes
Format settings, Matrix                  : Default
Format settings, GOP                     : M=3, N=12
Format settings, picture structure       : Frame
Duration                                 : 1 h 12 min
Bit rate mode                            : Variable
Bit rate                                 : 7 500 kb/s
Maximum bit rate                         : 9 800 kb/s
Width                                    : 720 pixels
Height                                   : 576 pixels
Display aspect ratio                     : 16:9
Frame rate                               : 25.000 FPS
Standard                                 : PAL
Color space                              : YUV
Chroma subsampling                       : 4:2:0
Bit depth                                : 8 bits
Scan type                                : Interlaced
Scan order                               : Top Field First
Compression mode                         : Lossy
Bits/(Pixel*Frame)                       : 0.723

Audio #1
ID                                       : 128 (0x80)
Format                                   : AC-3
Format/Info                              : Audio Coding 3
Commercial name                          : Dolby Digital
Muxing mode                              : DVD-Video
Duration                                 : 1 h 12 min
Bit rate mode                            : Constant
Bit rate                                 : 384 kb/s
Channel(s)                               : 6 channels
Channel layout                           : L R C LFE Ls Rs
Sampling rate                            : 48.0 kHz
Frame rate                               : 31.250 FPS (1536 SPF)
Bit depth                                : 16 bits
Compression mode                         : Lossy
Stream size                              : 198 MiB (3%)
Language                                 : Hungarian
Service kind                             : Complete Main

Audio #2
ID                                       : 129 (0x81)
Format                                   : AC-3
Format/Info                              : Audio Coding 3
Commercial name                          : Dolby Digital
Muxing mode                              : DVD-Video
Duration                                 : 1 h 12 min
Bit rate mode                            : Constant
Bit rate                                 : 448 kb/s
Channel(s)                               : 6 channels
Channel layout                           : L R C LFE Ls Rs
Sampling rate                            : 48.0 kHz
Frame rate                               : 31.250 FPS (1536 SPF)
Bit depth                                : 16 bits
Compression mode                         : Lossy
Stream size                              : 231 MiB (3%)
Language                                 : English
Service kind                             : Complete Main

Text #1
ID                                       : 0x20
Format                                   : RLE
Format/Info                              : Run-length encoding
Muxing mode                              : DVD-Video
Language                                 : Hungarian

Text #2
ID                                       : 0x21
Format                                   : RLE
Format/Info                              : Run-length encoding
Muxing mode                              : DVD-Video
Language                                 : English

Menu
Format                                   : DVD-Video
Language                                 : Hungarian / English
Features                                 : Interactive Menus, Scene Selection, Bonus Material
</pre>